<?xml version="1.0" standalone="no"?>
<!DOCTYPE svg PUBLIC "-//W3C//DTD SVG 20010904//EN"
 "http://www.w3.org/TR/2001/REC-SVG-20010904/DTD/svg10.dtd">
<svg version="1.0" xmlns="http://www.w3.org/2000/svg"
 width="96.000000pt" height="96.000000pt" viewBox="0 0 96.000000 96.000000"
 preserveAspectRatio="xMidYMid meet">
<metadata>
Created by potrace 1.16, written by Peter Selinger 2001-2019
</metadata>
<g transform="translate(0.000000,96.000000) scale(0.100000,-0.100000)"
fill="#000000" stroke="none">
<path d="M0 480 l0 -480 480 0 480 0 0 480 0 480 -480 0 -480 0 0 -480z m811
240 c18 -10 19 -23 19 -223 l0 -213 -31 -30 -30 -29 -250 -3 c-258 -3 -295 1
-268 34 9 11 62 14 259 14 228 0 248 1 264 19 14 16 16 41 14 193 l-3 175
-125 -98 c-69 -54 -131 -98 -138 -99 -12 0 -230 160 -265 195 -21 21 -21 39
-1 59 13 14 52 16 275 16 160 0 268 -4 280 -10z m-577 -188 c-37 -32 -64 -38
-71 -16 -2 7 15 26 38 43 34 25 45 28 57 19 12 -11 9 -18 -24 -46z m116 -15
c0 -8 -9 -22 -20 -32 -19 -17 -22 -17 -36 -3 -14 14 -14 17 1 32 20 19 55 21
55 3z m-202 -40 c4 -21 -25 -34 -40 -19 -8 8 -8 16 2 27 16 19 34 15 38 -8z
m122 -22 c0 -17 -133 -125 -154 -125 -33 0 -14 31 52 84 67 55 102 69 102 41z
m155 -2 c0 -15 -112 -103 -131 -103 -16 0 -25 13 -16 26 4 5 31 29 61 52 52
41 86 51 86 25z m-162 -117 c10 -26 -34 -49 -48 -26 -8 13 13 40 30 40 7 0 15
-6 18 -14z"/>
<path d="M405 595 c59 -47 111 -85 115 -85 7 0 184 134 214 161 6 5 -86 9
-214 9 l-223 0 108 -85z"/>
</g>
</svg>
